<?xml version="1.0" encoding="UTF-8"?>
<svg enable-background="new 0 0 500 71" version="1.1" viewBox="0 0 500 71" xml:space="preserve" xmlns="http://www.w3.org/2000/svg">
<style type="text/css">
	.st0{fill:url(#i);}
	.st1{fill:url(#h);}
	.st2{fill:url(#g);}
	.st3{fill:url(#f);}
	.st4{fill:url(#e);}
	.st5{fill:url(#d);}
	.st6{fill:url(#c);}
	.st7{fill:url(#b);}
	.st8{fill:url(#a);}
	.st9{fill:url(#n);}
	.st10{fill:url(#m);}
	.st11{fill:url(#l);}
	.st12{fill:url(#k);}
	.st13{fill:url(#j);}
</style>

	<path d="m42.5 65.5 1.1-0.2c0.1 0 0.2-0.1 0.3-0.2s0.1-0.2 0.1-0.3v-9.7c0-0.1 0-0.2-0.1-0.3s-0.2-0.2-0.3-0.2l-1.1-0.2v-0.4h4.6v0.4l-1.1 0.2c-0.1 0-0.2 0.1-0.3 0.2s-0.1 0.2-0.1 0.3v10.2h4.4 0.2s0.1-0.1 0.1-0.1 0.1-0.1 0.1-0.2 0-0.1 0-0.1l0.7-2.3h0.5v3.4h-9l-0.1-0.5z"/>
	<path d="m64.4 55.1c0-0.1 0-0.2-0.1-0.3s-0.2-0.2-0.3-0.2l-1.1-0.2v-0.4h4.6v0.4l-1.1 0.2c-0.1 0-0.2 0.1-0.3 0.2s-0.1 0.2-0.1 0.3v7.1 0.7c0 0.2 0.1 0.5 0.2 0.7s0.2 0.4 0.3 0.7c0.1 0.2 0.3 0.4 0.6 0.6s0.5 0.3 0.8 0.4 0.7 0.1 1.1 0.1 0.8 0 1.2-0.1c0.3-0.1 0.6-0.2 0.9-0.4s0.4-0.4 0.6-0.6 0.3-0.4 0.4-0.7c0.1-0.2 0.2-0.5 0.2-0.7s0.1-0.4 0.1-0.6v-7.1c0-0.1 0-0.2-0.1-0.3s-0.2-0.1-0.3-0.2l-1.1-0.3v-0.4h3.8v0.4l-1.1 0.3c-0.1 0-0.2 0.1-0.3 0.2s-0.1 0.2-0.1 0.3v7.2c0 0.5-0.1 0.9-0.2 1.3s-0.3 0.7-0.5 1-0.5 0.5-0.8 0.7-0.6 0.4-0.9 0.5-0.6 0.2-1 0.3c-0.3 0.1-0.6 0.1-0.9 0.1-0.7 0-1.4-0.1-1.9-0.3s-1-0.5-1.4-0.8-0.6-0.7-0.8-1.1-0.3-0.9-0.3-1.3l-0.1-7.7z"/>
	<path d="m110.8 55.1c0-0.1 0-0.2-0.1-0.3s-0.2-0.2-0.3-0.2l-1.1-0.2v-0.4h4.6v0.4l-1.1 0.2c-0.1 0-0.2 0.1-0.3 0.2s-0.1 0.2-0.1 0.3v7.1 0.7c0 0.2 0.1 0.5 0.2 0.7s0.2 0.4 0.3 0.7c0.1 0.2 0.3 0.4 0.6 0.6s0.5 0.3 0.8 0.4 0.7 0.1 1.1 0.1 0.8 0 1.2-0.1c0.3-0.1 0.6-0.2 0.9-0.4s0.4-0.4 0.6-0.6 0.3-0.4 0.4-0.7c0.1-0.2 0.2-0.5 0.2-0.7s0.1-0.4 0.1-0.6v-7.1c0-0.1 0-0.2-0.1-0.3s-0.2-0.1-0.3-0.2l-1.1-0.3v-0.4h3.8v0.4l-1.1 0.3c-0.1 0-0.2 0.1-0.3 0.2s-0.1 0.2-0.1 0.3v7.2c0 0.5-0.1 0.9-0.2 1.3s-0.3 0.7-0.5 1-0.5 0.5-0.8 0.7-0.6 0.4-0.9 0.5-0.6 0.2-1 0.3c-0.3 0.1-0.6 0.1-0.9 0.1-0.7 0-1.4-0.1-1.9-0.3s-1-0.5-1.4-0.8-0.6-0.7-0.8-1.1-0.3-0.9-0.3-1.3l-0.1-7.7z"/>
	<path d="m86.5 65.5 0.6-0.2c0.1 0 0.3-0.1 0.4-0.3s0.2-0.2 0.3-0.3l3.3-4.6-3.2-5c0-0.1-0.1-0.1-0.1-0.2s-0.1-0.1-0.1-0.2-0.1-0.1-0.2-0.1-0.1-0.1-0.1-0.1l-0.7-0.2v-0.3h4.3v0.4l-1.5 0.3 2.2 3.4 0.6 1 2.9-4.4-1.4-0.3v-0.4h3.4v0.4l-0.6 0.2c-0.1 0-0.3 0.1-0.4 0.3-0.1 0.1-0.2 0.2-0.3 0.4l-3.1 4.5 3.3 5.2 0.3 0.3c0.1 0.1 0.2 0.2 0.3 0.2l0.7 0.2v0.4h-4.3v-0.4l1.5-0.3-2.3-3.6-0.6-1-3 4.6 1.4 0.3v0.4h-3.4v-0.6h-0.2z"/>
	<path d="m131.8 65.5 1.1-0.2c0.1 0 0.2-0.1 0.3-0.2s0.1-0.2 0.1-0.3v-9.7c0-0.1 0-0.2-0.1-0.3s-0.2-0.2-0.3-0.2l-1.1-0.2v-0.4h4.4c0.6 0 1.1 0 1.6 0.1s0.8 0.2 1.2 0.3c0.3 0.1 0.6 0.3 0.8 0.5s0.4 0.4 0.5 0.6 0.2 0.5 0.3 0.7 0.1 0.5 0.1 0.7c0 0.5-0.1 0.9-0.3 1.3s-0.4 0.7-0.7 1-0.6 0.5-0.9 0.7-0.6 0.3-0.9 0.4l3.3 4.3 0.2 0.2s0.2 0.2 0.2 0.2c0.1 0.1 0.2 0.1 0.2 0.2s0.2 0.1 0.2 0.1l1 0.2v0.4h-1.8c-0.3 0-0.5 0-0.6-0.1-0.2 0-0.3-0.1-0.4-0.2s-0.2-0.2-0.4-0.3c-0.1-0.1-0.2-0.3-0.4-0.5l-3.1-4.2-1.4-0.3v4.4c0 0.1 0 0.2 0.1 0.3s0.2 0.1 0.3 0.2l1.3 0.2v0.4h-4.7v-0.3h-0.1zm3.1-5.7h0.3s0.2 0 0.4 0 0.3 0 0.4 0h0.3c0.5 0 0.8-0.1 1.2-0.2 0.3-0.1 0.6-0.3 0.8-0.6 0.2-0.2 0.4-0.5 0.5-0.8s0.2-0.7 0.2-1c0-0.5-0.1-0.9-0.2-1.2s-0.3-0.6-0.6-0.8c-0.2-0.2-0.5-0.4-0.9-0.5s-0.8-0.2-1.2-0.2h-1.2v5.3z"/>
	<path d="m156.3 65.5 1.3-0.2c0.1 0 0.2-0.1 0.3-0.2s0.1-0.2 0.1-0.3v-3.7l-3.3-6c-0.1-0.1-0.1-0.2-0.2-0.3s-0.2-0.2-0.3-0.2l-0.8-0.2v-0.4h4.3v0.4l-1.5 0.3 2.6 4.6 0.6 1.1 3.1-5.6-1.4-0.3v-0.5h3.3v0.4l-0.7 0.2c-0.1 0-0.2 0.1-0.3 0.2s-0.2 0.2-0.2 0.3l-3.4 5.9v3.8c0 0.1 0 0.2 0.1 0.3s0.2 0.2 0.3 0.2l1.3 0.2v0.4h-4.9v-0.4h-0.3z"/>
	<path d="m192.2 65.5 1.1-0.2c0.1 0 0.2-0.1 0.3-0.2s0.1-0.2 0.1-0.3v-9.7c0-0.1 0-0.2-0.1-0.3s-0.2-0.2-0.3-0.2l-1.1-0.2v-0.4h4.3c0.9 0 1.6 0.1 2.1 0.2 0.6 0.1 1 0.3 1.3 0.6 0.3 0.2 0.5 0.5 0.7 0.8 0.1 0.3 0.2 0.6 0.2 1s-0.1 0.7-0.2 1-0.3 0.6-0.5 0.9-0.5 0.5-0.8 0.7-0.7 0.3-1.1 0.4c0.5 0 0.9 0.1 1.3 0.2s0.8 0.3 1.1 0.6 0.5 0.5 0.7 0.9 0.3 0.7 0.3 1.2-0.1 0.9-0.2 1.2-0.3 0.6-0.5 0.9-0.5 0.5-0.8 0.6c-0.3 0.2-0.6 0.3-1 0.4s-0.7 0.2-1.1 0.2-0.8 0.1-1.2 0.1h-4.6v-0.4zm3.9-6c0.6 0 1.1-0.1 1.5-0.2s0.7-0.3 1-0.4c0.2-0.2 0.4-0.4 0.5-0.7s0.2-0.6 0.2-1c0-0.5-0.1-0.9-0.2-1.2s-0.3-0.6-0.5-0.8-0.5-0.4-0.9-0.5-0.8-0.1-1.2-0.1h-1.1v4.9h0.7zm1.1 5.8c0.9 0 1.6-0.2 2.1-0.6s0.7-1 0.7-1.9c0-0.5-0.1-0.9-0.2-1.3s-0.3-0.6-0.6-0.9c-0.3-0.2-0.6-0.4-1-0.5s-0.9-0.1-1.5-0.1h-1.3v5.2l1.8 0.1z"/>
	<path d="m215.8 55.1c0-0.1 0-0.2-0.1-0.3s-0.2-0.2-0.3-0.2l-1.1-0.2v-0.4h4.6v0.4l-1.1 0.2c-0.1 0-0.2 0.1-0.3 0.2s-0.1 0.2-0.1 0.3v7.1 0.7c0 0.2 0.1 0.5 0.2 0.7s0.2 0.4 0.3 0.7c0.1 0.2 0.3 0.4 0.6 0.6s0.5 0.3 0.8 0.4 0.7 0.1 1.1 0.1 0.8 0 1.2-0.1c0.3-0.1 0.6-0.2 0.9-0.4s0.4-0.4 0.6-0.6 0.3-0.4 0.4-0.7c0.1-0.2 0.2-0.5 0.2-0.7s0.1-0.4 0.1-0.6v-7.1c0-0.1 0-0.2-0.1-0.3s-0.2-0.1-0.3-0.2l-1.1-0.3v-0.4h3.8v0.4l-1.1 0.3c-0.1 0-0.2 0.1-0.3 0.2s-0.1 0.2-0.1 0.3v7.2c0 0.5-0.1 0.9-0.2 1.3s-0.3 0.7-0.5 1-0.5 0.5-0.8 0.7-0.6 0.4-0.9 0.5-0.6 0.2-1 0.3c-0.3 0.1-0.6 0.1-0.9 0.1-0.7 0-1.4-0.1-1.9-0.3s-1-0.5-1.4-0.8-0.6-0.7-0.8-1.1-0.3-0.9-0.3-1.3l-0.1-7.7z"/>
	<path d="m238.5 62.4h0.5l0.7 1.7c0 0.1 0.1 0.2 0.2 0.2s0.2 0.2 0.2 0.2c0.2 0.1 0.4 0.3 0.7 0.4 0.2 0.1 0.5 0.2 0.7 0.3s0.5 0.1 0.7 0.2 0.4 0.1 0.6 0.1c0.4 0 0.7-0.1 1-0.2s0.6-0.3 0.8-0.5 0.4-0.4 0.5-0.7 0.2-0.6 0.2-1c0-0.5-0.1-1-0.4-1.3s-0.7-0.6-1.2-0.8c-0.2-0.1-0.4-0.2-0.7-0.2-0.2-0.1-0.4-0.1-0.6-0.2s-0.4-0.1-0.7-0.2c-0.2-0.1-0.4-0.1-0.6-0.2-0.6-0.3-1.2-0.6-1.5-1.1-0.4-0.5-0.5-1.1-0.5-1.8 0-0.5 0.1-1 0.3-1.4s0.5-0.8 0.8-1.1 0.7-0.6 1.2-0.8 1-0.3 1.5-0.3h0.9c0.3 0 0.6 0.1 0.9 0.1 0.3 0.1 0.5 0.1 0.8 0.2s0.5 0.1 0.8 0.2v2.8h-0.5l-0.6-1.6c0-0.1-0.1-0.2-0.2-0.2l-0.2-0.2c-0.1-0.1-0.3-0.2-0.5-0.3s-0.4-0.1-0.6-0.2-0.4-0.1-0.6-0.1h-0.5c-0.3 0-0.6 0-0.9 0.1s-0.5 0.2-0.7 0.4-0.3 0.4-0.4 0.6-0.2 0.5-0.2 0.8c0 0.2 0 0.5 0.1 0.7 0 0.2 0.1 0.4 0.3 0.7 0.1 0.2 0.3 0.4 0.5 0.6s0.5 0.3 0.8 0.4c0.2 0.1 0.4 0.1 0.6 0.2s0.4 0.1 0.6 0.2 0.4 0.1 0.6 0.2 0.4 0.2 0.7 0.3 0.5 0.2 0.8 0.4 0.5 0.3 0.7 0.6c0.2 0.2 0.4 0.5 0.5 0.8s0.2 0.7 0.2 1.1c0 0.5-0.1 0.9-0.2 1.4-0.2 0.4-0.4 0.9-0.8 1.2-0.4 0.4-0.8 0.6-1.4 0.9-0.6 0.2-1.2 0.3-2 0.3-0.3 0-0.5 0-0.8-0.1-0.3 0-0.6-0.1-0.9-0.2s-0.6-0.2-0.9-0.2-0.6-0.2-0.9-0.3l-0.4-3.1z"/>
	<path d="m259.4 65.5 1.1-0.2c0.1 0 0.2-0.1 0.3-0.2s0.1-0.2 0.1-0.3v-9.7c0-0.1 0-0.2-0.1-0.3s-0.2-0.2-0.3-0.2l-1.1-0.2v-0.4h4.6v0.4l-1.1 0.2c-0.1 0-0.2 0.1-0.3 0.2s-0.1 0.2-0.1 0.3v9.7c0 0.1 0 0.2 0.1 0.3s0.2 0.1 0.3 0.2l1.1 0.2v0.4h-4.6v-0.4z"/>
	<path d="m276.5 65.5 1.1-0.3c0.1 0 0.2-0.1 0.3-0.2s0.1-0.2 0.1-0.3v-9.6c0-0.1 0-0.2-0.1-0.3s-0.2-0.1-0.3-0.2l-1.2-0.3v-0.3h2.9l5.7 8.3 0.8 1.2v-8.2c0-0.1 0-0.2-0.1-0.3s-0.2-0.1-0.3-0.2l-1.1-0.3v-0.5h3.8v0.4l-1.1 0.3c-0.1 0-0.2 0.1-0.3 0.2s-0.1 0.2-0.1 0.3v8.8l-0.3 2.1h-0.5l-6.2-8.9-0.9-1.3v9c0 0.1 0 0.2 0.1 0.3s0.2 0.1 0.3 0.2l1.1 0.3v0.4h-3.8v-0.6h0.1z"/>
	<path d="m300.5 65.5 1.1-0.2c0.1 0 0.2-0.1 0.3-0.2s0.1-0.2 0.1-0.3v-9.7c0-0.1 0-0.2-0.1-0.3s-0.2-0.2-0.3-0.2l-1.1-0.2v-0.4h8.7v2.8h-0.5l-0.6-1.9c0-0.1-0.1-0.2-0.1-0.2-0.1-0.1-0.1-0.1-0.2-0.1h-4.2v4.8h2.7c0.1 0 0.2 0 0.3-0.1s0.1-0.1 0.1-0.2l0.5-1.4h0.4v4.1h-0.4l-0.5-1.4c0-0.1-0.1-0.2-0.1-0.2-0.1-0.1-0.1-0.1-0.3-0.1h-2.7v5.2h4.9c0.1 0 0.2 0 0.2-0.1 0.1-0.1 0.1-0.1 0.1-0.2l0.6-2.1h0.5v3.1h-9.4v-0.5z"/>
	<path d="m322.8 62.4h0.5l0.7 1.7c0 0.1 0.1 0.2 0.2 0.2s0.2 0.2 0.2 0.2c0.2 0.1 0.4 0.3 0.7 0.4 0.2 0.1 0.5 0.2 0.7 0.3s0.5 0.1 0.7 0.2c0.2 0 0.4 0.1 0.6 0.1 0.4 0 0.7-0.1 1-0.2s0.6-0.3 0.8-0.5 0.4-0.4 0.5-0.7 0.2-0.6 0.2-1c0-0.5-0.1-1-0.4-1.3s-0.7-0.6-1.2-0.8c-0.2-0.1-0.4-0.2-0.7-0.2-0.2-0.1-0.4-0.1-0.6-0.2s-0.4-0.1-0.7-0.2c-0.2-0.1-0.4-0.1-0.6-0.2-0.6-0.3-1.2-0.6-1.5-1.1-0.4-0.5-0.5-1.1-0.5-1.8 0-0.5 0.1-1 0.3-1.4s0.5-0.8 0.8-1.1 0.7-0.6 1.2-0.8 1-0.3 1.5-0.3h0.9s0.6 0.1 0.9 0.1c0.3 0.1 0.5 0.1 0.8 0.2s0.5 0.1 0.8 0.2v2.8h-0.5l-0.6-1.6c0-0.1-0.1-0.2-0.2-0.2l-0.2-0.2c-0.1-0.1-0.3-0.2-0.5-0.3s-0.4-0.1-0.6-0.2-0.4-0.1-0.6-0.1-0.3 0-0.5 0c-0.3 0-0.6 0-0.9 0.1s-0.5 0.2-0.7 0.4-0.3 0.4-0.4 0.6-0.2 0.5-0.2 0.8c0 0.2 0 0.5 0.1 0.7 0 0.2 0.1 0.4 0.3 0.7 0.1 0.2 0.3 0.4 0.5 0.6s0.5 0.3 0.8 0.4c0.2 0.1 0.4 0.1 0.6 0.2s0.4 0.1 0.6 0.2 0.4 0.1 0.6 0.2 0.4 0.2 0.7 0.3 0.5 0.2 0.8 0.4 0.5 0.3 0.7 0.6c0.2 0.2 0.4 0.5 0.5 0.8s0.2 0.7 0.2 1.1c0 0.5-0.1 0.9-0.2 1.4-0.2 0.4-0.4 0.9-0.8 1.2-0.4 0.4-0.8 0.6-1.4 0.9-0.6 0.2-1.2 0.3-2 0.3-0.3 0-0.5 0-0.8-0.1-0.3 0-0.6-0.1-0.9-0.2s-0.6-0.2-0.9-0.2c-0.3-0.1-0.6-0.2-0.9-0.3l-0.4-3.1z"/>
	<path d="m343.9 62.4h0.5l0.7 1.7c0 0.1 0.1 0.2 0.2 0.2s0.2 0.2 0.2 0.2c0.2 0.1 0.4 0.3 0.7 0.4 0.2 0.1 0.5 0.2 0.7 0.3s0.5 0.1 0.7 0.2c0.2 0 0.4 0.1 0.6 0.1 0.4 0 0.7-0.1 1-0.2s0.6-0.3 0.8-0.5 0.4-0.4 0.5-0.7 0.2-0.6 0.2-1c0-0.5-0.1-1-0.4-1.3s-0.7-0.6-1.2-0.8c-0.2-0.1-0.4-0.2-0.7-0.2-0.2-0.1-0.4-0.1-0.6-0.2s-0.4-0.1-0.7-0.2c-0.2-0.1-0.4-0.1-0.6-0.2-0.6-0.3-1.2-0.6-1.5-1.1-0.4-0.5-0.5-1.1-0.5-1.8 0-0.5 0.1-1 0.3-1.4s0.5-0.8 0.8-1.1 0.7-0.6 1.2-0.8 1-0.3 1.5-0.3h0.9s0.6 0.1 0.9 0.1c0.3 0.1 0.5 0.1 0.8 0.2s0.5 0.1 0.8 0.2v2.8h-0.5l-0.6-1.6c0-0.1-0.1-0.2-0.2-0.2l-0.2-0.2c-0.1-0.1-0.3-0.2-0.5-0.3s-0.4-0.1-0.6-0.2-0.4-0.1-0.6-0.1-0.3 0-0.5 0c-0.3 0-0.6 0-0.9 0.1s-0.5 0.2-0.7 0.4-0.3 0.4-0.4 0.6-0.2 0.5-0.2 0.8c0 0.2 0 0.5 0.1 0.7 0 0.2 0.1 0.4 0.3 0.7 0.1 0.2 0.3 0.4 0.5 0.6s0.5 0.3 0.8 0.4c0.2 0.1 0.4 0.1 0.6 0.2s0.4 0.1 0.6 0.2 0.4 0.1 0.6 0.2 0.4 0.2 0.7 0.3 0.5 0.2 0.8 0.4 0.5 0.3 0.7 0.6c0.2 0.2 0.4 0.5 0.5 0.8s0.2 0.7 0.2 1.1c0 0.5-0.1 0.9-0.2 1.4-0.2 0.4-0.4 0.9-0.8 1.2-0.4 0.4-0.8 0.6-1.4 0.9-0.6 0.2-1.2 0.3-2 0.3-0.3 0-0.5 0-0.8-0.1-0.3 0-0.6-0.1-0.9-0.2s-0.6-0.2-0.9-0.2c-0.3-0.1-0.6-0.2-0.9-0.3l-0.4-3.1z"/>
	<path d="m381.4 55.1c0-0.1-0.1-0.2-0.2-0.3s-0.2-0.2-0.3-0.2l-0.8-0.2v-0.4h4.3v0.4l-1.5 0.3 3.1 8.1 0.4 1.2 3.4-9.2-1.5-0.3v-0.5h3.4v0.4l-0.7 0.2c-0.1 0-0.2 0.1-0.3 0.2s-0.2 0.2-0.2 0.3l-3.5 9-1 2h-0.3l-4.3-11z"/>
	<path d="m401.8 65.5 0.7-0.2c0.1 0 0.2-0.1 0.3-0.2s0.2-0.2 0.2-0.3l3.4-9 1.1-2h0.3l4.3 11c0 0.1 0.1 0.2 0.2 0.3s0.2 0.2 0.3 0.2l0.7 0.2v0.4h-4.2v-0.4l1.5-0.3-1.4-3.8h-4.2l-1.3 3.7 1.5 0.3v0.4h-3.4v-0.3zm7.2-4.7-1.4-3.7-0.4-1.2-1.8 4.8h3.6v0.1z"/>
	<path d="m425.1 65.5 1.1-0.3c0.1 0 0.2-0.1 0.3-0.2s0.1-0.2 0.1-0.3v-9.6c0-0.1 0-0.2-0.1-0.3s-0.2-0.1-0.3-0.2l-1.2-0.3v-0.3h2.9l5.7 8.3 0.8 1.2v-8.2c0-0.1 0-0.2-0.1-0.3s-0.2-0.1-0.3-0.2l-1.1-0.3v-0.5h3.8v0.4l-1.1 0.3c-0.1 0-0.2 0.1-0.3 0.2s-0.1 0.2-0.1 0.3v8.8l-0.2 2h-0.5l-6.2-8.9-0.9-1.3v9c0 0.1 0 0.2 0.1 0.3s0.2 0.1 0.3 0.2l1.1 0.3v0.4h-3.8v-0.5z"/>
	<path d="m449.4 62.4h0.5l0.7 1.7c0 0.1 0.1 0.2 0.2 0.2s0.2 0.2 0.2 0.2c0.2 0.1 0.4 0.3 0.7 0.4 0.2 0.1 0.5 0.2 0.7 0.3s0.5 0.1 0.7 0.2c0.2 0 0.4 0.1 0.6 0.1 0.4 0 0.7-0.1 1-0.2s0.6-0.3 0.8-0.5 0.4-0.4 0.5-0.7 0.2-0.6 0.2-1c0-0.5-0.1-1-0.4-1.3s-0.7-0.6-1.2-0.8c-0.2-0.1-0.4-0.2-0.7-0.2-0.2-0.1-0.4-0.1-0.6-0.2s-0.4-0.1-0.7-0.2c-0.2-0.1-0.4-0.1-0.6-0.2-0.6-0.3-1.2-0.6-1.5-1.1-0.4-0.5-0.5-1.1-0.5-1.8 0-0.5 0.1-1 0.3-1.4s0.5-0.8 0.8-1.1 0.7-0.6 1.2-0.8 1-0.3 1.5-0.3h0.9s0.6 0.1 0.9 0.1c0.3 0.1 0.5 0.1 0.8 0.2s0.5 0.1 0.8 0.2v2.8h-0.5l-0.6-1.6c0-0.1-0.1-0.2-0.2-0.2l-0.2-0.2c-0.1-0.1-0.3-0.2-0.5-0.3s-0.4-0.1-0.6-0.2-0.4-0.1-0.6-0.1-0.3 0-0.5 0c-0.3 0-0.6 0-0.9 0.1s-0.5 0.2-0.7 0.4-0.3 0.4-0.4 0.6-0.2 0.5-0.2 0.8c0 0.2 0 0.5 0.1 0.7 0 0.2 0.1 0.4 0.3 0.7 0.1 0.2 0.3 0.4 0.5 0.6s0.5 0.3 0.8 0.4c0.2 0.1 0.4 0.1 0.6 0.2s0.4 0.1 0.6 0.2 0.4 0.1 0.6 0.2 0.4 0.2 0.7 0.3 0.5 0.2 0.8 0.4 0.5 0.3 0.7 0.6c0.2 0.2 0.4 0.5 0.5 0.8s0.2 0.7 0.2 1.1c0 0.5-0.1 0.9-0.2 1.4-0.2 0.4-0.4 0.9-0.8 1.2-0.4 0.4-0.8 0.6-1.4 0.9-0.6 0.2-1.2 0.3-2 0.3-0.3 0-0.5 0-0.8-0.1-0.3 0-0.6-0.1-0.9-0.2s-0.6-0.2-0.9-0.2c-0.3-0.1-0.6-0.2-0.9-0.3l-0.4-3.1z"/>


	
		
			<linearGradient id="i" x1="22.35" x2="22.35" y1="66.175" y2="36.342" gradientTransform="matrix(1 0 0 -1 0 72)" gradientUnits="userSpaceOnUse">
			<stop stop-color="#A97C50" offset=".0050761"/>
			<stop stop-color="#754C29" offset="1"/>
		</linearGradient>
		<path class="st0" d="m21.3 40.1c-0.2-0.7-1.2-3.4-3-8.1l-8.2-20.3c-0.9-2.3-1.5-3.6-1.8-3.9s-1.2-0.5-2.9-0.6l-0.2-0.2v-1.2l0.2-0.2c2.5 0.1 4.5 0.2 6.3 0.2 1.6 0 3.7-0.1 6.4-0.2l0.2 0.2v1.3l-0.2 0.2c-1.9 0-3.1 0.1-3.5 0.2s-0.6 0.4-0.6 0.7c0 0.2 0.3 1 0.8 2.6s1 2.8 1.4 3.8l7.5 19 6.3-15.7c0.4-1.1 1.1-2.8 1.9-5.2s1.3-3.8 1.3-4.3c0-0.4-0.2-0.7-0.6-0.8s-1.6-0.3-3.6-0.4l-0.2-0.2v-1.2l0.2-0.2c2.8 0.1 4.6 0.2 5.4 0.2 0.6 0 2.2-0.1 4.9-0.2l0.2 0.2v1.2l-0.2 0.2c-1.2 0-1.9 0.1-2.1 0.3s-0.5 0.4-0.6 0.7-0.8 1.6-1.7 3.8l-7.5 18.5c-1.7 4.1-2.9 7.3-3.6 9.6h-2.5z"/>
		
			<linearGradient id="h" x1="48.4" x2="48.4" y1="66.175" y2="36.342" gradientTransform="matrix(1 0 0 -1 0 72)" gradientUnits="userSpaceOnUse">
			<stop stop-color="#A97C50" offset=".0050761"/>
			<stop stop-color="#754C29" offset="1"/>
		</linearGradient>
		<path class="st1" d="M41.4,29.3V29l1.1-3.2h12.9v0.4l-1.2,3.2H41.4V29.3z"/>
		
			<linearGradient id="g" x1="74.4" x2="74.4" y1="66.175" y2="36.342" gradientTransform="matrix(1 0 0 -1 0 72)" gradientUnits="userSpaceOnUse">
			<stop stop-color="#A97C50" offset=".0050761"/>
			<stop stop-color="#754C29" offset="1"/>
		</linearGradient>
		<path class="st2" d="m90.3 35.6-0.9 2.2c-3.6 1.8-7.4 2.7-11.4 2.7-5.8 0-10.5-1.6-14.1-4.9s-5.4-7.6-5.4-12.9c0-3.7 0.9-6.9 2.7-9.6s4.2-4.8 7.2-6.1c3-1.4 6.3-2 10-2 2.1 0 4.2 0.2 6.3 0.7 2.1 0.4 3.8 1 5.2 1.6l0.1 0.2c-0.4 0.9-0.7 3.1-1 6.7l-0.2 0.2h-1.1l-0.2-0.2-0.2-4.2c-1.2-0.9-2.6-1.7-4.3-2.2s-3.4-0.8-5.2-0.8c-2.7 0-5.1 0.6-7.3 1.7s-3.8 2.8-5 5.1c-1.2 2.2-1.8 4.9-1.8 8.1s0.7 6 2.1 8.5c1.4 2.4 3.3 4.3 5.7 5.6s5.2 2 8.5 2c1.4 0 2.8-0.1 4.1-0.4s2.4-0.6 3.3-1 1.7-0.9 2.5-1.5l0.4 0.5z"/>
		
			<linearGradient id="f" x1="106.35" x2="106.35" y1="66.175" y2="36.342" gradientTransform="matrix(1 0 0 -1 0 72)" gradientUnits="userSpaceOnUse">
			<stop stop-color="#A97C50" offset=".0050761"/>
			<stop stop-color="#754C29" offset="1"/>
		</linearGradient>
		<path class="st3" d="m92.6 5.8 0.2-0.2c4 0.1 6.3 0.2 6.9 0.2 0.5 0 2.8-0.1 6.9-0.2l0.2 0.2v1.2l-0.2 0.2c-1.1 0-2 0.1-2.6 0.1-0.6 0.1-1 0.2-1.3 0.4s-0.5 0.6-0.5 1.2c-0.1 0.6-0.1 1.6-0.1 2.7v16.1 5.6l0.1 4.2h4.9c3.9 0 6.4 0 7.3-0.1 1-0.1 1.9-0.3 2.8-0.7 0.2-0.4 0.4-1.3 0.8-2.8s0.5-2.3 0.5-2.5l0.2-0.2h1.2l0.2 0.2c-0.1 0.6-0.3 1.9-0.4 3.7s-0.2 3.3-0.2 4.5l-0.2 0.2c-3.1-0.1-7.1-0.1-12-0.1h-7c-1.6 0-3.2 0.1-4.9 0.2l-0.2-0.2v-0.8l0.2-0.2c1-0.5 1.5-0.8 1.6-0.9s0.2-1.1 0.3-3.1 0.2-4.3 0.2-7.1v-15.1c0-1.8-0.1-3-0.1-3.5-0.3-0.6-0.4-1-0.5-1.1-0.2-0.2-0.4-0.3-0.9-0.4s-1.5-0.2-3.2-0.3l-0.2-0.2v-1.2z"/>
		
			<linearGradient id="e" x1="140.9" x2="140.9" y1="66.175" y2="36.342" gradientTransform="matrix(1 0 0 -1 0 72)" gradientUnits="userSpaceOnUse">
			<stop stop-color="#A97C50" offset=".0050761"/>
			<stop stop-color="#754C29" offset="1"/>
		</linearGradient>
		<path class="st4" d="m122.9 39.8-0.2-0.2v-1.3l0.2-0.2c1.2 0 1.9-0.1 2.3-0.2 0.3-0.1 0.6-0.3 0.9-0.6s0.8-1.3 1.6-3.1l2.5-5.5 6.5-14.8c1.2-2.9 2.5-5.8 3.7-8.7h1.6l10.3 24.2 1.4 3.2c0.4 0.9 0.9 1.9 1.4 3s0.9 1.7 1.1 1.9 0.4 0.3 0.7 0.4 1 0.2 2 0.2l0.2 0.2v1.3l-0.2 0.2c-1.7-0.1-3.2-0.2-4.6-0.2-2.7 0.1-5.3 0.2-8 0.2l-0.2-0.2v-1.3l0.2-0.2c1.8 0 2.9-0.1 3.4-0.2 0.4-0.1 0.7-0.4 0.7-0.8s-0.1-0.8-0.3-1.4l-3-7.3h-13.9l-2.6 6.2c-0.5 1.1-0.7 1.9-0.7 2.4 0 0.4 0.2 0.7 0.7 0.9 0.4 0.2 1.5 0.3 3.3 0.3l0.2 0.2v1.3l-0.2 0.2c-2.1-0.1-3.9-0.2-5.4-0.2-2 0-3.8 0-5.6 0.1zm11-13.5h12.2l-6-14.5-6.2 14.5z"/>
		
			<linearGradient id="d" x1="173.53" x2="173.53" y1="66.175" y2="36.342" gradientTransform="matrix(1 0 0 -1 0 72)" gradientUnits="userSpaceOnUse">
			<stop stop-color="#A97C50" offset=".0050761"/>
			<stop stop-color="#754C29" offset="1"/>
		</linearGradient>
		<path class="st5" d="m162.1 31.4 0.2-0.2h1.2l0.2 0.2c0.1 2.1 0.2 3.3 0.3 3.8s0.6 0.9 1.3 1.4 1.7 0.9 2.9 1.2 2.4 0.5 3.7 0.5c1.7 0 3.2-0.3 4.6-0.9s2.4-1.5 3.2-2.8c0.8-1.2 1.1-2.6 1.1-4.1 0-1.1-0.2-2-0.5-2.8-0.4-0.8-0.9-1.4-1.5-1.9-0.7-0.5-1.4-0.8-2.2-1.1-0.8-0.2-2.1-0.5-3.7-0.8s-2.9-0.5-3.8-0.7-1.8-0.5-2.7-1-1.6-1-2.3-1.6c-0.6-0.7-1.1-1.5-1.4-2.5-0.4-1-0.5-2-0.5-3.1 0-3 1-5.5 3.1-7.4s4.9-2.9 8.4-2.9c1.4 0 2.9 0.2 4.6 0.5 1.6 0.3 3.1 0.9 4.5 1.5l0.2 0.3c-0.4 1.5-0.6 3.6-0.7 6.3l-0.2 0.2h-1.3l-0.2-0.2c0-1.9-0.1-3.1-0.1-3.6-0.1-0.5-0.8-1.1-2.2-1.9-1.4-0.7-2.9-1.1-4.6-1.1-1.4 0-2.6 0.3-3.8 0.8s-2.1 1.4-2.7 2.6-0.9 2.4-0.9 3.6c0 0.9 0.2 1.8 0.6 2.5s0.8 1.3 1.4 1.7 1.3 0.7 2 1 2.2 0.5 4.3 0.8c2.8 0.4 4.9 0.9 6.2 1.5s2.3 1.5 3.1 2.7 1.2 2.7 1.2 4.5c0 3.4-1.4 6.3-4.2 8.5-2.8 2.3-6.2 3.4-10.1 3.4-3.3 0-6.2-0.6-8.7-1.8l-0.1-0.3c-0.1-0.8 0-3.1 0.1-6.8z"/>
		
			<linearGradient id="c" x1="199.43" x2="199.43" y1="66.175" y2="36.342" gradientTransform="matrix(1 0 0 -1 0 72)" gradientUnits="userSpaceOnUse">
			<stop stop-color="#A97C50" offset=".0050761"/>
			<stop stop-color="#754C29" offset="1"/>
		</linearGradient>
		<path class="st6" d="m188 31.4 0.2-0.2h1.2l0.2 0.2c0.1 2.1 0.2 3.3 0.3 3.8s0.6 0.9 1.3 1.4 1.7 0.9 2.9 1.2 2.4 0.5 3.7 0.5c1.7 0 3.2-0.3 4.6-0.9s2.4-1.5 3.2-2.8c0.8-1.2 1.1-2.6 1.1-4.1 0-1.1-0.2-2-0.5-2.8-0.4-0.8-0.9-1.4-1.5-1.9-0.7-0.5-1.4-0.8-2.2-1.1-0.8-0.2-2.1-0.5-3.7-0.8s-2.9-0.5-3.8-0.7-1.8-0.5-2.7-1-1.6-1-2.3-1.6c-0.6-0.7-1.1-1.5-1.4-2.5-0.4-1-0.5-2-0.5-3.1 0-3 1-5.5 3.1-7.4s4.9-2.9 8.4-2.9c1.4 0 2.9 0.2 4.6 0.5 1.6 0.3 3.1 0.9 4.5 1.5l0.2 0.3c-0.4 1.5-0.6 3.6-0.7 6.3l-0.2 0.2h-1.3l-0.2-0.2c0-1.9-0.1-3.1-0.1-3.6-0.1-0.5-0.8-1.1-2.2-1.9-1.4-0.7-2.9-1.1-4.6-1.1-1.4 0-2.6 0.3-3.8 0.8s-2.1 1.4-2.7 2.6-0.9 2.4-0.9 3.6c0 0.9 0.2 1.8 0.6 2.5s0.8 1.3 1.4 1.7 1.3 0.7 2 1 2.2 0.5 4.3 0.8c2.8 0.4 4.9 0.9 6.2 1.5s2.3 1.5 3.1 2.7 1.2 2.7 1.2 4.5c0 3.4-1.4 6.3-4.2 8.5-2.8 2.3-6.2 3.4-10.1 3.4-3.3 0-6.2-0.6-8.7-1.8l-0.1-0.3c-0.1-0.8 0-3.1 0.1-6.8z"/>
		
			<linearGradient id="b" x1="284.5" x2="284.5" y1="66.175" y2="36.342" gradientTransform="matrix(1 0 0 -1 0 72)" gradientUnits="userSpaceOnUse">
			<stop stop-color="#A97C50" offset=".0050761"/>
			<stop stop-color="#754C29" offset="1"/>
		</linearGradient>
		<path class="st7" d="m306.6 5.7 0.2 0.2v1.2l-0.2 0.2c-1.8 0-2.9 0.1-3.3 0.3-0.4 0.1-0.7 0.3-0.9 0.6s-0.3 0.9-0.3 1.7-0.1 3.3-0.1 7.3v11.1c0 1.6 0 3.4 0.1 5.4 0 2 0.1 3.2 0.3 3.5s0.4 0.6 0.8 0.7c0.4 0.2 1.5 0.3 3.4 0.3l0.2 0.2v1.2l-0.2 0.2c-2.6-0.1-4.9-0.2-6.8-0.2-1.3 0-3.6 0.1-6.7 0.2l-0.2-0.2v-1.2l0.2-0.2c1.8 0 2.9-0.1 3.3-0.3 0.4-0.1 0.7-0.3 0.9-0.6s0.3-0.9 0.3-1.8 0.1-3.3 0.1-7.3v-17.5l-8.4 17.3c-2.1 4.4-3.9 8.4-5.5 12.3h-0.9c-0.9-2.1-1.6-3.7-2.2-5l-11.5-23.9v16.8c0 1.6 0 3.4 0.1 5.4s0.1 3.2 0.3 3.6 0.4 0.6 0.8 0.7c0.4 0.2 1.5 0.3 3.4 0.3l0.2 0.2v1.2l-0.2 0.2-1.5-0.1c-1.6-0.1-3-0.1-4.1-0.1-0.5 0-2.4 0.1-5.8 0.2l-0.2-0.2v-1.2l0.2-0.2c1.8 0 2.9-0.1 3.3-0.2s0.7-0.3 0.9-0.7c0.2-0.3 0.3-0.9 0.3-1.7s0.1-3.3 0.1-7.4v-11c0-1.5 0-3.2-0.1-5.3 0-2.1-0.1-3.3-0.3-3.6s-0.4-0.6-0.8-0.7-1.5-0.3-3.4-0.3l-0.2-0.2v-1.2l0.2-0.2c1.1 0.1 2.6 0.1 4.5 0.1 1.8 0 3.3 0 4.6-0.1 1.3 3.1 2.6 5.9 3.9 8.5l9.1 18.7 8.2-17.2c2.2-4.6 3.7-8 4.5-10 1.5 0.1 3.1 0.1 4.6 0.1 1.4 0 3 0 4.8-0.1z"/>
		
			<linearGradient id="a" x1="327.3" x2="327.3" y1="66.175" y2="36.342" gradientTransform="matrix(1 0 0 -1 0 72)" gradientUnits="userSpaceOnUse">
			<stop stop-color="#A97C50" offset=".0050761"/>
			<stop stop-color="#754C29" offset="1"/>
		</linearGradient>
		<path class="st8" d="m309.1 23.1c0-2.4 0.3-4.7 1-6.7 0.7-2.1 1.9-4 3.5-5.8 1.7-1.8 3.7-3.1 6-4.1s5-1.5 7.9-1.5c5.5 0 9.8 1.5 13.1 4.5 3.2 3 4.9 7 4.9 12.2 0 3.6-0.8 6.9-2.4 9.8s-3.9 5.1-6.8 6.7c-3 1.6-6.3 2.4-10 2.4-2.6 0-5-0.4-7.2-1.3s-4.1-2.2-5.6-3.9-2.7-3.7-3.4-6c-0.7-2.4-1-4.5-1-6.3zm5-1.6c0 2 0.3 4.1 1 6.3 0.6 2.3 1.6 4.2 2.8 5.8 1.3 1.6 2.7 2.8 4.4 3.6s3.5 1.2 5.6 1.2c2.5 0 4.7-0.6 6.6-1.7s3.4-2.9 4.4-5.3 1.5-5.1 1.5-8.1c0-3.2-0.6-6.2-1.7-8.8-1.2-2.6-2.8-4.5-4.9-5.7s-4.5-1.8-7.1-1.8c-3.9 0-7 1.2-9.2 3.7-2.3 2.4-3.4 6-3.4 10.8z"/>
		
			<linearGradient id="n" x1="360.03" x2="360.03" y1="66.175" y2="36.342" gradientTransform="matrix(1 0 0 -1 0 72)" gradientUnits="userSpaceOnUse">
			<stop stop-color="#A97C50" offset=".0050761"/>
			<stop stop-color="#754C29" offset="1"/>
		</linearGradient>
		<path class="st9" d="m348.6 31.4 0.2-0.2h1.2l0.2 0.2c0.1 2.1 0.2 3.3 0.3 3.8s0.6 0.9 1.3 1.4 1.7 0.9 2.9 1.2 2.4 0.5 3.7 0.5c1.7 0 3.2-0.3 4.6-0.9s2.4-1.5 3.2-2.8c0.8-1.2 1.1-2.6 1.1-4.1 0-1.1-0.2-2-0.5-2.8-0.4-0.8-0.9-1.4-1.5-1.9-0.7-0.5-1.4-0.8-2.2-1.1-0.8-0.2-2.1-0.5-3.7-0.8s-2.9-0.5-3.8-0.7-1.8-0.5-2.7-1c-0.9-0.4-1.6-1-2.3-1.6s-1.1-1.5-1.4-2.5c-0.4-1-0.5-2-0.5-3.1 0-3 1-5.5 3.1-7.4s4.9-2.9 8.4-2.9c1.4 0 2.9 0.2 4.6 0.5 1.6 0.3 3.1 0.9 4.5 1.5l0.2 0.3c-0.4 1.5-0.6 3.6-0.7 6.3l-0.2 0.2h-1.3l-0.2-0.2c0-1.9-0.1-3.1-0.1-3.6-0.1-0.5-0.8-1.1-2.2-1.9-1.4-0.7-2.9-1.1-4.6-1.1-1.4 0-2.6 0.3-3.8 0.8s-2.1 1.4-2.7 2.6-0.9 2.4-0.9 3.6c0 0.9 0.2 1.8 0.6 2.5s0.8 1.3 1.4 1.7 1.3 0.7 2 1c0.8 0.2 2.2 0.5 4.3 0.8 2.8 0.4 4.9 0.9 6.2 1.5s2.3 1.5 3.1 2.7 1.2 2.7 1.2 4.5c0 3.4-1.4 6.3-4.2 8.5-2.8 2.3-6.2 3.4-10.1 3.4-3.3 0-6.2-0.6-8.7-1.8l-0.1-0.3c-0.1-0.8 0-3.1 0.1-6.8z"/>
		
			<linearGradient id="m" x1="390.3" x2="390.3" y1="66.175" y2="36.342" gradientTransform="matrix(1 0 0 -1 0 72)" gradientUnits="userSpaceOnUse">
			<stop stop-color="#A97C50" offset=".0050761"/>
			<stop stop-color="#754C29" offset="1"/>
		</linearGradient>
		<path class="st10" d="m406.2 35.6-0.9 2.2c-3.6 1.8-7.4 2.7-11.4 2.7-5.8 0-10.5-1.6-14.1-4.9s-5.4-7.6-5.4-12.9c0-3.7 0.9-6.9 2.7-9.6s4.2-4.8 7.2-6.1c3-1.4 6.3-2 10-2 2.1 0 4.2 0.2 6.3 0.7 2.1 0.4 3.8 1 5.2 1.6l0.2 0.2c-0.4 0.9-0.7 3.1-1 6.7l-0.2 0.2h-1.1l-0.2-0.2-0.2-4.1c-1.2-0.9-2.6-1.7-4.3-2.2s-3.4-0.8-5.2-0.8c-2.7 0-5.1 0.6-7.3 1.7s-3.8 2.8-5 5.1c-1.2 2.2-1.8 4.9-1.8 8.1s0.7 6 2.1 8.5c1.4 2.4 3.3 4.3 5.7 5.6s5.2 2 8.5 2c1.4 0 2.8-0.1 4.1-0.4s2.4-0.6 3.3-1 1.7-0.9 2.5-1.5l0.3 0.4z"/>
		
			<linearGradient id="l" x1="426.9" x2="426.9" y1="66.175" y2="36.342" gradientTransform="matrix(1 0 0 -1 0 72)" gradientUnits="userSpaceOnUse">
			<stop stop-color="#A97C50" offset=".0050761"/>
			<stop stop-color="#754C29" offset="1"/>
		</linearGradient>
		<path class="st11" d="m408.7 23.1c0-2.4 0.3-4.7 1-6.7 0.7-2.1 1.9-4 3.5-5.8 1.7-1.8 3.7-3.1 6-4.1s5-1.5 7.9-1.5c5.5 0 9.8 1.5 13.1 4.5 3.2 3 4.9 7 4.9 12.2 0 3.6-0.8 6.9-2.4 9.8s-3.9 5.1-6.8 6.7-6.3 2.4-10 2.4c-2.6 0-5-0.4-7.2-1.3s-4.1-2.2-5.6-3.9-2.7-3.7-3.4-6c-0.6-2.4-1-4.5-1-6.3zm5-1.6c0 2 0.3 4.1 1 6.3 0.6 2.3 1.6 4.2 2.8 5.8 1.3 1.6 2.7 2.8 4.4 3.6s3.5 1.2 5.6 1.2c2.5 0 4.7-0.6 6.6-1.7s3.4-2.9 4.4-5.3 1.5-5.1 1.5-8.1c0-3.2-0.6-6.2-1.7-8.8-1.2-2.6-2.8-4.5-4.9-5.7s-4.5-1.8-7.1-1.8c-3.9 0-7 1.2-9.2 3.7-2.3 2.4-3.4 6-3.4 10.8z"/>
		
			<linearGradient id="k" x1="470.8" x2="470.8" y1="66.175" y2="36.342" gradientTransform="matrix(1 0 0 -1 0 72)" gradientUnits="userSpaceOnUse">
			<stop stop-color="#A97C50" offset=".0050761"/>
			<stop stop-color="#754C29" offset="1"/>
		</linearGradient>
		<path class="st12" d="m457.7 40.1-2.2-10-4.6-19.8c-0.4-1.6-0.8-2.5-1.2-2.6s-1.3-0.4-2.6-0.5l-0.2-0.2v-1.2l0.2-0.2c2.3 0.1 4.4 0.2 6.1 0.2 1.3 0 3.3-0.1 5.8-0.2l0.2 0.2v1.1l-0.2 0.2c-1.8 0.1-2.9 0.2-3.2 0.3s-0.5 0.4-0.5 0.8c0 0.3 0.2 1.4 0.5 3.2s0.6 3.2 0.9 4.4l3.8 16.7 5.9-14.8c1.6-3.9 3.1-8 4.6-12.3h1.5c1.3 4 2.6 7.9 4 11.7l5.7 15.7 4.1-14.4c0.4-1.5 0.9-3.5 1.5-5.9 0.6-2.5 0.9-3.9 0.9-4.3s-0.2-0.7-0.6-0.8-1.6-0.2-3.5-0.2l-0.2-0.2v-1.2l0.2-0.2c2.7 0.1 4.4 0.2 4.9 0.2s2.2-0.1 5-0.2l0.2 0.2v1.1l-0.2 0.2c-0.9 0-1.5 0.1-1.8 0.3-0.3 0.1-0.6 0.3-0.8 0.6s-0.5 1.1-1 2.5l-1.4 4.5-2.5 8.1c-0.4 1.2-1 3.5-2 7.1l-2.7 10h-2.3c-1.7-5-3.1-9-4.1-11.9l-5.5-14.9-4.8 11.9-2.6 6.7c-0.7 1.8-1.2 3.2-1.6 4.4l-1.3 3.8h-2.4v-0.1z"/>
	
	
		<linearGradient id="j" x1="237.45" x2="237.45" y1="64.4" y2="34.1" gradientTransform="matrix(1 0 0 -1 0 72)" gradientUnits="userSpaceOnUse">
		<stop stop-color="#A97C50" offset=".0050761"/>
		<stop stop-color="#754C29" offset="1"/>
	</linearGradient>
	<path class="st13" d="m237.7 7.6c-2.9 8-8 11.6-15.3 15.3 7.3 2.5 12.4 7.6 15 15 2.4-7.4 9.5-12.5 15.1-15.1-5.6-1.9-11.2-7.5-14.8-15.2z"/>

</svg>
